<svg xmlns="http://www.w3.org/2000/svg" xmlns:xlink="http://www.w3.org/1999/xlink" width="434" height="120" viewBox="0 0 434 120">
  <defs>
    <linearGradient id="linear-gradient" x1="0.174" y1="0.182" x2="0.96" y2="0.936" gradientUnits="objectBoundingBox">
      <stop offset="0" stop-color="#e3242c"/>
      <stop offset="1" stop-color="#d75b27"/>
    </linearGradient>
    <clipPath id="clip-path">
      <path id="패스_17704" data-name="패스 17704" d="M3,10a7,7,0,1,1,12.065,4.826c-.043.035-.085.074-.126.113s-.077.082-.112.126A7,7,0,0,1,3,10M10,0a10,10,0,1,0,5.927,18.049l2.512,2.512A1.5,1.5,0,0,0,21,19.519v-.038a1.5,1.5,0,0,0-.439-1.042l-2.512-2.511A10,10,0,0,0,10,0Z" fill="url(#linear-gradient)"/>
    </clipPath>
    <clipPath id="clip-path-2">
      <rect id="사각형_170904" data-name="사각형 170904" width="16" height="16" fill="none" stroke="#525866" stroke-width="1"/>
    </clipPath>
    <clipPath id="clip-ir">
      <rect width="434" height="120"/>
    </clipPath>
  </defs>
  <g id="ir" clip-path="url(#clip-ir)">
    <path id="ico_arrow_w" d="M0,6H12m0,0L6,0m6,6L6,12" transform="translate(407.5 61.5)" fill="#fff" stroke="#fff" stroke-linecap="round" stroke-linejoin="round" stroke-width="2"/>
    <path id="패스_17730" data-name="패스 17730" d="M8.406,21.511v-7.9a2.652,2.652,0,0,1,.116-1.125,1.068,1.068,0,0,1,.467-.467,2.652,2.652,0,0,1,1.125-.116H13.1a2.652,2.652,0,0,1,1.125.116,1.068,1.068,0,0,1,.467.467,2.652,2.652,0,0,1,.116,1.125v7.9M10.56,2.042,3.319,7.674a4.634,4.634,0,0,0-.9.8,2.135,2.135,0,0,0-.34.694A4.634,4.634,0,0,0,2,10.371v7.724a5.3,5.3,0,0,0,.233,2.251,2.136,2.136,0,0,0,.933.933,5.306,5.306,0,0,0,2.251.233H17.8a5.305,5.305,0,0,0,2.251-.233,2.136,2.136,0,0,0,.933-.933,5.305,5.305,0,0,0,.233-2.251V10.371a4.63,4.63,0,0,0-.079-1.2,2.133,2.133,0,0,0-.34-.694,4.627,4.627,0,0,0-.9-.8L12.657,2.042a2.485,2.485,0,0,0-.77-.494,1.068,1.068,0,0,0-.558,0A2.485,2.485,0,0,0,10.56,2.042Z" transform="translate(66.5 87.989)" fill="none" stroke="#525866" stroke-linecap="round" stroke-linejoin="round" stroke-width="1.5"/>
    <path id="패스_17732" data-name="패스 17732" d="M0,6,6,0l6,6" transform="translate(104.5 96.5)" fill="none" stroke="#222" stroke-linecap="round" stroke-linejoin="round" stroke-width="1.5"/>
    <g id="그룹_25238" data-name="그룹 25238" transform="translate(254 11)" clip-path="url(#clip-path)">
      <rect id="사각형_170897" data-name="사각형 170897" width="21" height="21" fill="url(#linear-gradient)"/>
    </g>
    <path id="패스_17723" data-name="패스 17723" d="M0,4H8M8,4,4,0M8,4,4,8" transform="translate(347.5 5.5)" fill="none" stroke="#d10028" stroke-linecap="round" stroke-linejoin="round" stroke-width="1.5"/>
    <path id="패스_17724" data-name="패스 17724" d="M0,4H8M8,4,4,0M8,4,4,8" transform="translate(371.5 5.5)" fill="none" stroke="#c6501b" stroke-linecap="round" stroke-linejoin="round" stroke-width="1.5"/>
    <path id="패스_17731" data-name="패스 17731" d="M0,0,6,6l6-6" transform="translate(136.5 96.5)" fill="none" stroke="#222" stroke-linecap="round" stroke-linejoin="round" stroke-width="1.5"/>
    <path id="패스_17733" data-name="패스 17733" d="M0,6,6,0l6,6" transform="translate(335.718 92.251) rotate(90)" fill="none" stroke="#d10028" stroke-linecap="round" stroke-linejoin="round" stroke-width="2"/>
    <g id="그룹_25250" data-name="그룹 25250" transform="translate(356.218 89.751)">
      <g id="그룹_25249" data-name="그룹 25249" clip-path="url(#clip-path-2)">
        <path id="패스_17734" data-name="패스 17734" d="M14.714,5.571V1m0,0H10.143m4.571,0L7.857,7.857M6.334,1H4.657a5.679,5.679,0,0,0-2.409.249,2.292,2.292,0,0,0-1,1A5.679,5.679,0,0,0,1,4.657v6.4a5.679,5.679,0,0,0,.249,2.409,2.292,2.292,0,0,0,1,1,5.679,5.679,0,0,0,2.409.249h6.4a5.676,5.676,0,0,0,2.409-.249,2.281,2.281,0,0,0,1-1,5.679,5.679,0,0,0,.249-2.409V9.381" transform="translate(0.143 0.143)" fill="none" stroke="#525866" stroke-linecap="round" stroke-linejoin="round" stroke-width="2"/>
      </g>
    </g>
    <path id="패스_1481" data-name="패스 1481" d="M9,22l8-8L9,6" transform="translate(62.5 11.5)" fill="none" stroke="#fff" stroke-linecap="round" stroke-linejoin="round" stroke-width="3"/>
    <path id="패스_1481-2" data-name="패스 1481" d="M17,22,9,14l8-8" transform="translate(11.5 11.5)" fill="none" stroke="#fff" stroke-linecap="round" stroke-linejoin="round" stroke-width="3"/>
    <path id="패스_17720" data-name="패스 17720" d="M8,3.333v9.333M3.333,8h9.333" transform="translate(399.901 90.667)" fill="none" stroke="#999" stroke-linecap="round" stroke-linejoin="round" stroke-width="2"/>
    <path id="패스_17721" data-name="패스 17721" d="M3.333,8h9.333" transform="translate(381.885 91)" fill="none" stroke="#fff" stroke-linecap="round" stroke-linejoin="round" stroke-width="2"/>
    <path id="패스_17719" data-name="패스 17719" d="M26,6,6,26M6,6,26,26" transform="translate(298.5 6)" fill="none" stroke="#fff" stroke-linecap="round" stroke-linejoin="round" stroke-width="2"/>
    <path id="패스_17727" data-name="패스 17727" d="M1.333,9.333s.081.566,2.424,2.909A6,6,0,0,0,13.851,9.333m-12.517,0v4m0-4h4m9.333-2.667s-.081-.566-2.424-2.909A6,6,0,0,0,2.149,6.667m12.517,0v-4m0,4h-4" transform="translate(198.167 91.5)" fill="none" stroke="#525866" stroke-linecap="round" stroke-linejoin="round" stroke-width="1.5"/>
    <path id="패스_17728" data-name="패스 17728" d="M3.333,8h9.333" transform="translate(230.166 91.5)" fill="none" stroke="#525866" stroke-linecap="round" stroke-linejoin="round" stroke-width="1.5"/>
    <path id="패스_17729" data-name="패스 17729" d="M8,3.333v9.333M3.333,8h9.333" transform="translate(166.166 91.167)" fill="none" stroke="#525866" stroke-linecap="round" stroke-linejoin="round" stroke-width="1.5"/>
    <path id="패스_17725" data-name="패스 17725" d="M14.8,6V4.56a3.975,3.975,0,0,0-.174-1.686,1.6,1.6,0,0,0-.7-.7A3.975,3.975,0,0,0,12.24,2H7.76a3.975,3.975,0,0,0-1.686.174,1.6,1.6,0,0,0-.7.7A3.975,3.975,0,0,0,5.2,4.56V6m0,8.8a6.016,6.016,0,0,1-1.421-.082,2.4,2.4,0,0,1-1.7-1.7A6.015,6.015,0,0,1,2,11.6V9.84a5.962,5.962,0,0,1,.262-2.53A2.4,2.4,0,0,1,3.31,6.262,5.962,5.962,0,0,1,5.84,6h8.32a5.963,5.963,0,0,1,2.53.262A2.4,2.4,0,0,1,17.738,7.31,5.962,5.962,0,0,1,18,9.84V11.6a6.016,6.016,0,0,1-.082,1.421,2.4,2.4,0,0,1-1.7,1.7A6.016,6.016,0,0,1,14.8,14.8m-2.4-6h2.4M7.76,18h4.48a3.975,3.975,0,0,0,1.686-.174,1.6,1.6,0,0,0,.7-.7A3.975,3.975,0,0,0,14.8,15.44V14.16a3.975,3.975,0,0,0-.174-1.686,1.6,1.6,0,0,0-.7-.7A3.975,3.975,0,0,0,12.24,11.6H7.76a3.975,3.975,0,0,0-1.686.174,1.6,1.6,0,0,0-.7.7A3.975,3.975,0,0,0,5.2,14.16v1.28a3.975,3.975,0,0,0,.174,1.686,1.6,1.6,0,0,0,.7.7A3.975,3.975,0,0,0,7.76,18Z" transform="translate(292.5 88.5)" fill="none" stroke="#fff" stroke-linecap="round" stroke-linejoin="round" stroke-width="2"/>
    <path id="패스_17726" data-name="패스 17726" d="M7.472,11.208l5.464,3.184m-.008-8.784L7.472,8.792M17.4,4.4A2.4,2.4,0,1,1,15,2,2.4,2.4,0,0,1,17.4,4.4ZM7.8,10A2.4,2.4,0,1,1,5.4,7.6,2.4,2.4,0,0,1,7.8,10Zm9.6,5.6A2.4,2.4,0,1,1,15,13.2,2.4,2.4,0,0,1,17.4,15.6Z" transform="translate(259.5 88.5)" fill="none" stroke="#666" stroke-linecap="round" stroke-linejoin="round" stroke-width="2"/>
    <path id="패스_17622" data-name="패스 17622" d="M0,0,6,6,0,12" transform="translate(10.5 101.5) rotate(-90)" fill="none" stroke="#fff" stroke-linecap="round" stroke-linejoin="round" stroke-width="2.5"/>
    <path id="패스_17622-2" data-name="패스 17622" d="M0,12,6,6,0,0" transform="translate(53.5 95.5) rotate(90)" fill="none" stroke="#fff" stroke-linecap="round" stroke-linejoin="round" stroke-width="2.5"/>
    <path id="패스_17621" data-name="패스 17621" d="M15,18,9,12l6-6" transform="translate(165.5 54.5)" fill="none" stroke="#000" stroke-linecap="round" stroke-linejoin="round" stroke-width="2.5"/>
    <path id="패스_17622-3" data-name="패스 17622" d="M9,18l6-6L9,6" transform="translate(197.5 54.5)" fill="none" stroke="#000" stroke-linecap="round" stroke-linejoin="round" stroke-width="2.5"/>
    <path id="패스_17623" data-name="패스 17623" d="M0,0H12M0,4.667H12" transform="translate(243.167 60.5) rotate(90)" fill="none" stroke="#000" stroke-linecap="round" stroke-linejoin="round" stroke-width="2.5"/>
    <path id="패스_17702" data-name="패스 17702" d="M9.833,3.333v13m-6.5-6.5h13" transform="translate(70.167 57.167)" fill="none" stroke="#000" stroke-linecap="round" stroke-linejoin="round" stroke-width="2"/>
    <path id="패스_17703" data-name="패스 17703" d="M0,0H12M0,4.667H12" transform="translate(115.167 60.5) rotate(90)" fill="none" stroke="#fff" stroke-linecap="round" stroke-linejoin="round" stroke-width="2.5"/>
    <path id="패스_17717" data-name="패스 17717" d="M19.5,13.5v14m-7-7h14" transform="translate(204 1)" fill="none" stroke="#d80620" stroke-linecap="round" stroke-linejoin="round" stroke-width="2.5"/>
    <path id="패스_1456" data-name="패스 1456" d="M12,6.249H0m0,0L6,0M0,6.249,6,12.5" transform="translate(297.5 60.5)" fill="none" stroke="#525866" stroke-linecap="round" stroke-linejoin="round" stroke-width="2"/>
    <path id="패스_1457" data-name="패스 1457" d="M0,6.249H12m0,0L6,0m6,6.249L6,12.5" transform="translate(330.5 60.5)" fill="none" stroke="#525866" stroke-linecap="round" stroke-linejoin="round" stroke-width="2"/>
    <path id="패스_17718" data-name="패스 17718" d="M3,6.5h8M3,11.611h8" transform="translate(356 73.5) rotate(-90)" fill="#fff" stroke="#fff" stroke-linecap="round" stroke-linejoin="round" stroke-width="2"/>
    <path id="패스_17737" data-name="패스 17737" d="M3.333,3.326c0-.647,0-.971.135-1.15a.667.667,0,0,1,.492-.263c.223-.013.493.166,1.031.525L12,7.112c.445.3.668.445.745.632a.667.667,0,0,1,0,.511c-.078.187-.3.335-.745.632l-7.01,4.674c-.539.359-.808.539-1.031.525a.666.666,0,0,1-.492-.263c-.135-.179-.135-.5-.135-1.15Z" transform="translate(137.167 58.587)" fill="none" stroke="#fff" stroke-linecap="round" stroke-linejoin="round" stroke-width="2.5"/>
    <path id="패스_17738" data-name="패스 17738" d="M3.333,3.326c0-.647,0-.971.135-1.15a.667.667,0,0,1,.492-.263c.223-.013.493.166,1.031.525L12,7.112c.445.3.668.445.745.632a.667.667,0,0,1,0,.511c-.078.187-.3.335-.745.632l-7.01,4.674c-.539.359-.808.539-1.031.525a.666.666,0,0,1-.492-.263c-.135-.179-.135-.5-.135-1.15Z" transform="translate(265.167 58.587)" fill="none" stroke="#000" stroke-linecap="round" stroke-linejoin="round" stroke-width="2.25"/>
    <path id="패스_17739" data-name="패스 17739" d="M3.333,2.809c0-.41,0-.616.086-.729a.423.423,0,0,1,.312-.167c.142-.008.312.105.654.333L8.829,5.209c.282.188.423.282.472.4a.423.423,0,0,1,0,.324c-.049.119-.19.213-.472.4L4.385,9.3c-.342.228-.512.341-.654.333a.423.423,0,0,1-.312-.167c-.086-.113-.086-.318-.086-.729Z" transform="translate(383.167 60.587)" fill="rgba(0,0,0,0)" stroke="#fff" stroke-linecap="round" stroke-linejoin="round" stroke-width="1.8"/>
    <path id="menu_FILL0_wght400_GRAD0_opsz24" d="M121.556-701.333a1.505,1.505,0,0,1-1.108-.447,1.505,1.505,0,0,1-.447-1.108,1.505,1.505,0,0,1,.447-1.108,1.505,1.505,0,0,1,1.108-.447h24.889a1.505,1.505,0,0,1,1.108.447,1.505,1.505,0,0,1,.447,1.108,1.505,1.505,0,0,1-.447,1.108,1.505,1.505,0,0,1-1.108.447Zm0-7.778a1.505,1.505,0,0,1-1.108-.447,1.5,1.5,0,0,1-.447-1.108,1.505,1.505,0,0,1,.447-1.108,1.505,1.505,0,0,1,1.108-.447h24.889a1.505,1.505,0,0,1,1.108.447,1.505,1.505,0,0,1,.447,1.108,1.5,1.5,0,0,1-.447,1.108,1.505,1.505,0,0,1-1.108.447Zm0-7.778a1.5,1.5,0,0,1-1.108-.447,1.5,1.5,0,0,1-.447-1.108,1.506,1.506,0,0,1,.447-1.108,1.506,1.506,0,0,1,1.108-.447h24.889a1.506,1.506,0,0,1,1.108.447,1.506,1.506,0,0,1,.447,1.108,1.5,1.5,0,0,1-.447,1.108,1.5,1.5,0,0,1-1.108.447Z" transform="translate(-8 737)" fill="#3d4145"/>
    <path id="menu_FILL0_wght400_GRAD0_opsz24-2" data-name="menu_FILL0_wght400_GRAD0_opsz24" d="M121.556-701.333a1.505,1.505,0,0,1-1.108-.447,1.505,1.505,0,0,1-.447-1.108,1.505,1.505,0,0,1,.447-1.108,1.505,1.505,0,0,1,1.108-.447h24.889a1.505,1.505,0,0,1,1.108.447,1.505,1.505,0,0,1,.447,1.108,1.505,1.505,0,0,1-.447,1.108,1.505,1.505,0,0,1-1.108.447Zm0-7.778a1.505,1.505,0,0,1-1.108-.447,1.5,1.5,0,0,1-.447-1.108,1.505,1.505,0,0,1,.447-1.108,1.505,1.505,0,0,1,1.108-.447h24.889a1.505,1.505,0,0,1,1.108.447,1.505,1.505,0,0,1,.447,1.108,1.5,1.5,0,0,1-.447,1.108,1.505,1.505,0,0,1-1.108.447Zm0-7.778a1.5,1.5,0,0,1-1.108-.447,1.5,1.5,0,0,1-.447-1.108,1.506,1.506,0,0,1,.447-1.108,1.506,1.506,0,0,1,1.108-.447h24.889a1.506,1.506,0,0,1,1.108.447,1.506,1.506,0,0,1,.447,1.108,1.5,1.5,0,0,1-.447,1.108,1.5,1.5,0,0,1-1.108.447Z" transform="translate(44 737)" fill="#fff"/>
    <path id="패스_17817" data-name="패스 17817" d="M0,4H8M8,4,4,0M8,4,4,8" transform="translate(393.5 13.5) rotate(-90)" fill="none" stroke="#fff" stroke-linecap="round" stroke-linejoin="round" stroke-width="1.5"/>
  </g>
</svg>
